# xmcd
#
# Track frame offsets: 
#        150
#        32218
#        62092
#        84044
#        112677
#        135874
#        156182
#        163879
#        178227
#        204875
#
# Disc length: 3040 seconds
#
# Revision: 0
# Processed by: cddbd v1.5.1PL2 Copyright (c) Steve Scherf et al.
# Submitted via: ExactAudioCopy v0.95b3
#
DISCID=740bde0a
DTITLE=KOQ - First Draft
DYEAR=2005
DGENRE=Blues
TTITLE0=Black
TTITLE1=Hard Bop
TTITLE2=It Bothers
TTITLE3=Lamentation
TTITLE4=Que Dois Je Faire
TTITLE5=Draft #2
TTITLE6=Some Blues
TTITLE7=And I Still Miss It
TTITLE8=Blue
TTITLE9=El Diablo
EXTD=
EXTT0=
EXTT1=
EXTT2=
EXTT3=
EXTT4=
EXTT5=
EXTT6=
EXTT7=
EXTT8=
EXTT9=
PLAYORDER=
